<svg width="125" height="144" viewBox="0 0 125 144" fill="none" xmlns="http://www.w3.org/2000/svg">
<path d="M95.1345 91.6548C108.134 104.655 108.134 103.761 119.634 115.261C120.645 116.272 117.997 117.685 117.997 117.685L109.876 123.776L99.7245 129.867C99.7245 129.867 94.6335 131.897 88.5578 132.912C82.4821 133.928 83.6713 134.469 80.4366 134.943C75.7294 135.632 72.9942 135.355 68.2548 134.943C62.2132 134.417 58.8504 133.592 53.0275 131.897C48.5721 130.601 46.3315 129.74 42.1344 127.761C35.9292 124.835 31.6992 123.546 28.1344 117.685C27.4537 116.566 26.431 117.537 26.1344 116.261C25.0799 111.726 30.4781 109.841 33.7396 106.518C39.0453 101.113 47.6344 93.2609 47.6344 93.2609C47.6344 93.2609 49.8065 88.9074 51.8368 90.2609C53.8671 91.6144 55.6849 93.708 59.1184 95.3518C67.3504 99.293 76.3736 98.4202 82.5001 96.5C88.591 94.5909 90.9955 87.5158 95.1345 91.6548Z" fill="#0A6A5F"/>
<path d="M48.7296 44.7071C35.7296 31.7071 36.4997 33 24.9999 21.5C23.9892 20.4893 25.867 18.6768 25.867 18.6768L33.9882 12.5859L44.1397 6.49495C44.1397 6.49495 49.2307 4.46465 55.3064 3.44949C61.382 2.43434 60.1929 1.89256 63.4276 1.41919C68.1347 0.730344 70.87 1.00707 75.6094 1.41919C81.651 1.94455 85.0138 2.77024 90.8367 4.46465C95.2921 5.76114 97.5326 6.62218 101.73 8.60103C107.935 11.5266 111.149 13.1491 116 18C117 19 119.362 19.5142 118.5 20.5C115 24.5 113.386 26.5208 110.125 29.8434C104.819 35.2486 96.2298 43.101 96.2298 43.101C96.2298 43.101 94.0576 47.4546 92.0273 46.101C89.997 44.7475 88.1793 42.6539 84.7458 41.0101C76.5138 37.069 67.4906 37.9417 61.3641 39.8619C55.2731 41.771 52.8686 48.8461 48.7296 44.7071Z" fill="#0A6A5F"/>
<g filter="url(#filter0_i_136_12568)">
<path d="M93.0519 89.0528L119.375 115.376C106.811 127.941 89.7685 135 71.999 135C63.2005 135 54.4881 133.267 46.3593 129.9C38.2304 126.533 30.8441 121.598 24.6226 115.376M24.6226 115.376L50.9462 89.0528M24.6226 115.376C18.4011 109.155 13.4662 101.769 10.0991 93.6397C6.73201 85.5109 4.99902 76.7985 4.99902 67.9999C4.99902 59.2014 6.73201 50.489 10.0991 42.3601C13.4662 34.2313 18.4011 26.845 24.6226 20.6235M24.6226 20.6235C30.8441 14.402 38.2304 9.46707 46.3593 6.10001C54.4881 2.73294 63.2005 0.999939 71.999 0.999939C89.7685 0.999939 106.81 8.05885 119.375 20.6238L93.0519 46.947M24.6226 20.6235L50.9462 46.947M71.999 97.7777C64.1015 97.7777 56.5274 94.6404 50.943 89.056C45.3586 83.4716 42.2213 75.8975 42.2213 67.9999C42.2213 60.1024 45.3586 52.5283 50.943 46.9439C56.5274 41.3595 64.1015 38.2222 71.999 38.2222C79.8966 38.2222 87.4707 41.3595 93.0551 46.9439C98.6395 52.5283 101.777 60.1024 101.777 67.9999C101.777 75.8975 98.6395 83.4716 93.0551 89.056C87.4707 94.6404 79.8966 97.7777 71.999 97.7777Z" stroke="url(#paint0_linear_136_12568)" stroke-width="2" stroke-linecap="round" stroke-linejoin="round"/>
</g>
<path d="M71.3337 82.2121L51.6958 55.8182L71.9988 64.9545L91.2867 55.8182L71.3337 82.2121Z" fill="url(#paint1_linear_136_12568)"/>
<defs>
<filter id="filter0_i_136_12568" x="3.99902" y="-6.10352e-05" width="116.376" height="140" filterUnits="userSpaceOnUse" color-interpolation-filters="sRGB">
<feFlood flood-opacity="0" result="BackgroundImageFix"/>
<feBlend mode="normal" in="SourceGraphic" in2="BackgroundImageFix" result="shape"/>
<feColorMatrix in="SourceAlpha" type="matrix" values="0 0 0 0 0 0 0 0 0 0 0 0 0 0 0 0 0 0 127 0" result="hardAlpha"/>
<feOffset dy="4"/>
<feGaussianBlur stdDeviation="2"/>
<feComposite in2="hardAlpha" operator="arithmetic" k2="-1" k3="1"/>
<feColorMatrix type="matrix" values="0 0 0 0 0 0 0 0 0 0 0 0 0 0 0 0 0 0 0.25 0"/>
<feBlend mode="normal" in2="shape" result="effect1_innerShadow_136_12568"/>
</filter>
<linearGradient id="paint0_linear_136_12568" x1="138.999" y1="67.9999" x2="4.99904" y2="67.9999" gradientUnits="userSpaceOnUse">
<stop stop-color="#009E82"/>
<stop offset="1" stop-color="#0A6A3C"/>
</linearGradient>
<linearGradient id="paint1_linear_136_12568" x1="70.9837" y1="61.9091" x2="70.9837" y2="82.2121" gradientUnits="userSpaceOnUse">
<stop stop-color="#029F8C"/>
<stop offset="1" stop-color="#0A6A3C"/>
</linearGradient>
</defs>
</svg>
